# xmcd
#
# Track frame offsets: 
#        150
#        16323
#        31044
#        44370
#        61573
#        75569
#        90179
#        107719
#        123043
#        136384
#        151953
#        167754
#        183914
#        198543
#        212566
#        234409
#        252905
#        268306
#
# Disc length: 3735 seconds
#
# Revision: 2
# Processed by: cddbd v1.5.2PL0 Copyright (c) Steve Scherf et al.
# Submitted via: ExactAudioCopy v0.99pb5
#
DISCID=dd0e9512
DTITLE=TOM ASTOR - STATIONEN - SEINE GRÖSSTEN ERFOLGE
DYEAR=1900
DGENRE=Country
TTITLE0=Junger Adler (Ein Lied Für (M)einen Sohn) (Remix `93) (1993)
TTITLE1=Ich Will Zurück Zu Mir (2000)
TTITLE2=Hungrige Herzen (1995)
TTITLE3=Respekt Vor Deiner Schwäche (1999)
TTITLE4=Ich Bin Kein Dichter - Kein Poet (With The Jordanaires) (1991)
TTITLE5=Musik Ist Wein Für Durstige Seelen (Wayfaring Stranger) (1998)
TTITLE6=Mit Einer Starken Frau (2001)
TTITLE7=Geisterreiter ((Ghost) Riders In The Sky) (With Günter Wewel) 
TTITLE7=(2000)
TTITLE8=Partner Fahr Rechts (1996)
TTITLE9=Orange Blossom Special (live) (1996)
TTITLE10=Ohne Dich Wär' Ich Nicht Ich (1991)
TTITLE11=Doch Ich Habe Dich Geliebt (Always On My Mind) (1993)
TTITLE12=I'm Getting Good At Missing You (With Don Williams) (1995)
TTITLE13=Zusammen Gewonnen - Zusammen Verlor'n (1998)
TTITLE14=Kameraden Der Straße (1996)
TTITLE15=Verlorener Sohn (1996)
TTITLE16=Das Ist Meine Freiheit (Rhinestone Cowboy) (1994)
TTITLE17=14 Tage Auf Dem Brenner (1984)
EXTD=ID3G: 2
EXTT0=
EXTT1=
EXTT2=
EXTT3=
EXTT4=
EXTT5=
EXTT6=
EXTT7=
EXTT8=
EXTT9=
EXTT10=
EXTT11=
EXTT12=
EXTT13=
EXTT14=
EXTT15=
EXTT16=
EXTT17=
PLAYORDER=
